<mxfile host="Electron" modified="2024-06-02T22:27:55.585Z" agent="Mozilla/5.0 (Windows NT 10.0; Win64; x64) AppleWebKit/537.36 (KHTML, like Gecko) draw.io/24.4.13 Chrome/124.0.6367.207 Electron/30.0.6 Safari/537.36" etag="blBVWEp1emR5rL_JLYpv" version="24.4.13" type="device">
  <diagram name="Страница — 1" id="0Me_hVA8JLuLEJQfANBF">
    <mxGraphModel dx="988" dy="1747" grid="1" gridSize="10" guides="1" tooltips="1" connect="1" arrows="1" fold="1" page="1" pageScale="1" pageWidth="827" pageHeight="1169" math="0" shadow="0">
      <root>
        <mxCell id="0" />
        <mxCell id="1" parent="0" />
        <mxCell id="YyzEPV21Y90kbuuKbUfG-1" value="Начало" style="rounded=1;whiteSpace=wrap;html=1;arcSize=50;" parent="1" vertex="1">
          <mxGeometry x="395" y="10" width="90" height="20" as="geometry" />
        </mxCell>
        <mxCell id="OAHgZUkmOT5a_XQyAgWU-1" value="" style="endArrow=none;dashed=1;html=1;rounded=0;exitX=0;exitY=0.5;exitDx=0;exitDy=0;entryX=1;entryY=0.5;entryDx=0;entryDy=0;exitPerimeter=0;" edge="1" parent="1" source="OAHgZUkmOT5a_XQyAgWU-3" target="YyzEPV21Y90kbuuKbUfG-1">
          <mxGeometry width="50" height="50" relative="1" as="geometry">
            <mxPoint x="520" y="20" as="sourcePoint" />
            <mxPoint x="510" y="-10" as="targetPoint" />
          </mxGeometry>
        </mxCell>
        <mxCell id="OAHgZUkmOT5a_XQyAgWU-3" value="    Входные параметры:&#xa;     mas, length, min, max" style="strokeWidth=2;shape=mxgraph.flowchart.annotation_1;align=left;pointerEvents=1;recursiveResize=1;autosize=0;verticalAlign=middle;horizontal=1;" vertex="1" parent="1">
          <mxGeometry x="530" y="-10" width="20" height="60" as="geometry" />
        </mxCell>
        <mxCell id="OAHgZUkmOT5a_XQyAgWU-8" value="" style="endArrow=none;html=1;rounded=0;exitX=0.5;exitY=1;exitDx=0;exitDy=0;entryX=0.5;entryY=0;entryDx=0;entryDy=0;" edge="1" parent="1" source="YyzEPV21Y90kbuuKbUfG-1" target="OAHgZUkmOT5a_XQyAgWU-9">
          <mxGeometry width="50" height="50" relative="1" as="geometry">
            <mxPoint x="340" y="130" as="sourcePoint" />
            <mxPoint x="390" y="80" as="targetPoint" />
          </mxGeometry>
        </mxCell>
        <mxCell id="OAHgZUkmOT5a_XQyAgWU-9" value="Random rnd = new Random();" style="rounded=0;whiteSpace=wrap;html=1;" vertex="1" parent="1">
          <mxGeometry x="355" y="40" width="170" height="20" as="geometry" />
        </mxCell>
        <mxCell id="OAHgZUkmOT5a_XQyAgWU-10" value="" style="endArrow=none;html=1;rounded=0;entryX=0.5;entryY=1;entryDx=0;entryDy=0;exitX=0.5;exitY=0;exitDx=0;exitDy=0;exitPerimeter=0;" edge="1" parent="1" source="OAHgZUkmOT5a_XQyAgWU-11" target="OAHgZUkmOT5a_XQyAgWU-9">
          <mxGeometry width="50" height="50" relative="1" as="geometry">
            <mxPoint x="340" y="130" as="sourcePoint" />
            <mxPoint x="390" y="80" as="targetPoint" />
          </mxGeometry>
        </mxCell>
        <mxCell id="OAHgZUkmOT5a_XQyAgWU-11" value="i = 0; length" style="strokeWidth=2;html=1;shape=mxgraph.flowchart.loop_limit;whiteSpace=wrap;" vertex="1" parent="1">
          <mxGeometry x="390" y="70" width="100" height="30" as="geometry" />
        </mxCell>
        <mxCell id="OAHgZUkmOT5a_XQyAgWU-12" value="" style="endArrow=none;html=1;rounded=0;entryX=0.5;entryY=0;entryDx=0;entryDy=0;exitX=0.5;exitY=1;exitDx=0;exitDy=0;exitPerimeter=0;" edge="1" parent="1" source="OAHgZUkmOT5a_XQyAgWU-11" target="OAHgZUkmOT5a_XQyAgWU-13">
          <mxGeometry width="50" height="50" relative="1" as="geometry">
            <mxPoint x="430" y="140" as="sourcePoint" />
            <mxPoint x="460" y="60" as="targetPoint" />
          </mxGeometry>
        </mxCell>
        <mxCell id="OAHgZUkmOT5a_XQyAgWU-13" value="mas[i] = rnd.Next(min, max);" style="shape=process;whiteSpace=wrap;html=1;backgroundOutline=1;" vertex="1" parent="1">
          <mxGeometry x="340" y="110" width="200" height="20" as="geometry" />
        </mxCell>
        <mxCell id="OAHgZUkmOT5a_XQyAgWU-14" value="i++" style="strokeWidth=2;html=1;shape=mxgraph.flowchart.loop_limit;whiteSpace=wrap;direction=west;" vertex="1" parent="1">
          <mxGeometry x="390" y="140" width="100" height="30" as="geometry" />
        </mxCell>
        <mxCell id="OAHgZUkmOT5a_XQyAgWU-15" value="" style="endArrow=none;html=1;rounded=0;entryX=0.5;entryY=1;entryDx=0;entryDy=0;exitX=0.5;exitY=1;exitDx=0;exitDy=0;exitPerimeter=0;" edge="1" parent="1" source="OAHgZUkmOT5a_XQyAgWU-14" target="OAHgZUkmOT5a_XQyAgWU-13">
          <mxGeometry width="50" height="50" relative="1" as="geometry">
            <mxPoint x="390" y="160" as="sourcePoint" />
            <mxPoint x="440" y="110" as="targetPoint" />
          </mxGeometry>
        </mxCell>
        <mxCell id="OAHgZUkmOT5a_XQyAgWU-16" value="Конец" style="rounded=1;whiteSpace=wrap;html=1;arcSize=50;" vertex="1" parent="1">
          <mxGeometry x="400" y="180" width="80" height="20" as="geometry" />
        </mxCell>
        <mxCell id="OAHgZUkmOT5a_XQyAgWU-17" value="" style="endArrow=none;html=1;rounded=0;entryX=0.5;entryY=0;entryDx=0;entryDy=0;entryPerimeter=0;exitX=0.5;exitY=0;exitDx=0;exitDy=0;" edge="1" parent="1" source="OAHgZUkmOT5a_XQyAgWU-16" target="OAHgZUkmOT5a_XQyAgWU-14">
          <mxGeometry width="50" height="50" relative="1" as="geometry">
            <mxPoint x="390" y="160" as="sourcePoint" />
            <mxPoint x="440" y="110" as="targetPoint" />
          </mxGeometry>
        </mxCell>
      </root>
    </mxGraphModel>
  </diagram>
</mxfile>
